<?xml version="1.0" encoding="UTF-8"?>
<svg version="1.1" xmlns="http://www.w3.org/2000/svg" width="2245" height="1587">
<path d="M0 0 C143.88 0 287.76 0 436 0 C436 38.28 436 76.56 436 116 C421.48 125.57 406.96 135.14 392 145 C385.24789062 149.455 385.24789062 149.455 378.359375 154 C372.8828125 157.61328125 372.8828125 157.61328125 370.32128906 159.30322266 C368.54244252 160.47707221 366.76381072 161.65124721 364.98535156 162.82568359 C362.27727881 164.61384574 359.56840509 166.40078866 356.859375 168.1875 C356.07624939 168.70505859 355.29312378 169.22261719 354.48626709 169.75585938 C353.74797668 170.24248047 353.00968628 170.72910156 352.24902344 171.23046875 C351.61784607 171.64707764 350.9866687 172.06368652 350.33636475 172.49291992 C346.9150605 174.69984394 343.45249222 176.84219236 340 179 C340 151.94 340 124.88 340 97 C259.81 97 179.62 97 97 97 C97.39601382 176.65670883 97.39601382 176.65670883 97.90087891 256.31274414 C97.94604492 271.70593262 97.94604492 271.70593262 97.95443726 278.90818787 C97.96376853 283.94749314 98.00129692 288.98574901 98.05575562 294.02476501 C98.12427789 300.45004605 98.14492636 306.87379818 98.13072276 313.2994107 C98.13369324 315.6589837 98.15356881 318.01860936 98.19215131 320.37786877 C98.46750981 338.03406073 98.46750981 338.03406073 94.86427593 342.86110783 C92.28362723 344.70423672 89.93948296 345.84181869 87 347 C85.39635504 348.0238348 83.81083756 349.0772322 82.25415039 350.17114258 C80.61960397 351.24705259 78.98406973 352.32146308 77.34765625 353.39453125 C76.01270615 354.27266983 76.01270615 354.27266983 74.65078735 355.16854858 C72.76134827 356.41133296 70.87150891 357.65350896 68.98129272 358.89511108 C64.04522575 362.13767094 59.11242981 365.38519805 54.1796875 368.6328125 C53.20946152 369.27149765 52.23923553 369.9101828 51.23960876 370.56822205 C43.3721177 375.74958336 35.52181925 380.9561407 27.6875 386.1875 C26.62877686 386.89414795 25.57005371 387.6007959 24.47924805 388.32885742 C20.00697462 391.31627393 15.53835748 394.30903627 11.07421875 397.30859375 C10.35081299 397.79368408 9.62740723 398.27877441 8.88208008 398.77856445 C7.60055051 399.63826954 6.32030493 400.49989379 5.04174805 401.36401367 C1.11187274 404 1.11187274 404 0 404 C0 270.68 0 137.36 0 0 Z " fill="#FFFFFF" transform="translate(158,478)"/>
<path d="M0 0 C0 126.72 0 253.44 0 384 C-143.88 384 -287.76 384 -436 384 C-436 351.66 -436 319.32 -436 286 C-434.35 285.67 -432.7 285.34 -431 285 C-428.78176711 283.86657007 -428.78176711 283.86657007 -426.63134766 282.38305664 C-425.7992276 281.83480728 -424.96710754 281.28655792 -424.10977173 280.72169495 C-422.77539566 279.82498329 -422.77539566 279.82498329 -421.4140625 278.91015625 C-420.48008636 278.29160263 -419.54611023 277.67304901 -418.58383179 277.03575134 C-415.59252094 275.05212664 -412.60872436 273.05751324 -409.625 271.0625 C-407.65543259 269.75382756 -405.68538514 268.44587728 -403.71484375 267.13867188 C-398.13684746 263.43531467 -392.56731547 259.71938817 -387 256 C-377.10484651 249.39232359 -367.19479024 242.80847986 -357.25146484 236.2734375 C-355.80810429 235.32423322 -354.36541814 234.37400278 -352.92333984 233.42285156 C-350.80709845 232.02710295 -348.68894829 230.63429806 -346.5703125 229.2421875 C-345.59869675 228.60021927 -345.59869675 228.60021927 -344.60745239 227.94528198 C-340.11414554 225 -340.11414554 225 -339 225 C-339 245.46 -339 265.92 -339 287 C-258.81 287 -178.62 287 -96 287 C-97.38383318 214.31268125 -97.38383318 214.31268125 -99.15307617 141.63452148 C-99.31115723 127.51965332 -99.31115723 127.51965332 -99.3405304 120.89442444 C-99.37294478 116.29932039 -99.50302254 111.71860476 -99.69514465 107.12745667 C-101.24642197 68.37590588 -101.24642197 68.37590588 -92.59874916 58.72097397 C-84.70216897 51.22107657 -75.08446395 46.40872696 -65.23474884 41.99340248 C-59.21719371 39.25950771 -53.92987908 35.5756966 -48.51953125 31.796875 C-46.70452833 30.5951755 -44.88663164 29.39782205 -43.06445312 28.20703125 C-42.19828369 27.63678223 -41.33211426 27.0665332 -40.43969727 26.47900391 C-38.65462995 25.30422027 -36.86913265 24.13008976 -35.08325195 22.95654297 C-25.22256134 16.47628475 -15.38774583 9.9723969 -5.7167511 3.21087646 C-1.10298956 0 -1.10298956 0 0 0 Z " fill="#FFFFFF" transform="translate(594,725)"/>
<path d="M0 0 C17.16 0 34.32 0 52 0 C63.3932109 12.81736226 63.3932109 12.81736226 66.76513672 22.65380859 C68.54005752 27.46342989 71.17998318 31.41888323 74.0625 35.625 C75.0321592 37.14063479 75.99564553 38.66023534 76.953125 40.18359375 C77.44232422 40.95558105 77.93152344 41.72756836 78.43554688 42.52294922 C81.41102955 47.23413012 84.36094973 51.96130263 87.3125 56.6875 C87.94075684 57.69337158 88.56901367 58.69924316 89.21630859 59.7355957 C91.79027993 63.85755668 94.36338072 67.98006079 96.93652344 72.10253906 C98.85311811 75.17277444 100.77028843 78.24264982 102.6875 81.3125 C103.62577637 82.81623169 103.62577637 82.81623169 104.58300781 84.3503418 C107.40886138 88.87474526 110.24306834 93.39279254 113.1171875 97.88671875 C127.61292292 120.55641844 140.20496911 143.84333565 152 168 C151.92894547 166.73373276 151.85789093 165.46746552 151.78468323 164.16282654 C150.90619151 147.23655959 150.86702966 130.33078864 150.89860606 113.38822103 C150.90496364 109.38580457 150.90545301 105.38338691 150.90663147 101.38096619 C150.90970893 93.84166557 150.91787267 86.30237989 150.92798096 78.76308578 C150.93925512 70.16295996 150.94468069 61.56283332 150.94967639 52.96270192 C150.96005935 35.30845782 150.97835879 17.65423413 151 0 C166.18 0 181.36 0 197 0 C197 75.57 197 151.14 197 229 C180.17 229 163.34 229 146 229 C134.47522511 216.00843558 134.47522511 216.00843558 132.640625 210.15625 C130.23143935 203.33204088 126.99625923 197.83077607 122.9375 191.875 C121.78293707 190.08205469 120.63449948 188.28515033 119.4921875 186.484375 C118.92081055 185.58912109 118.34943359 184.69386719 117.76074219 183.77148438 C112.75657005 175.89470094 107.83674704 167.96448087 102.89990234 160.04541016 C100.3609253 155.9756081 97.81598452 151.90955056 95.27099609 147.84350586 C93.38551883 144.82931577 91.503001 141.81329503 89.62109375 138.796875 C87.31014677 135.09296955 84.98961532 131.39541097 82.66015625 127.703125 C71.12403762 109.34744626 60.45015358 90.51513644 51 71 C50.00294081 68.99853229 49.00333379 66.99832963 48 65 C47.33333333 63.66666667 46.66666667 62.33333333 46 61 C45.8982662 67.29619157 45.93769425 73.5364222 46.35625553 79.82006359 C47.27453276 93.9955039 47.12946192 108.19130683 47.10139394 122.38884139 C47.09505234 126.14971336 47.0945482 129.91058652 47.09336853 133.67146301 C47.09028656 140.76111448 47.08211637 147.85075013 47.07201904 154.9403947 C47.06075936 163.02532257 47.05532287 171.11025128 47.05032361 179.19518507 C47.03993035 195.7968007 47.0216249 212.39839462 47 229 C31.49 229 15.98 229 0 229 C0 153.43 0 77.86 0 0 Z " fill="#FFFFFF" transform="translate(766,688)"/>
<path d="M0 0 C128.58521776 0 128.58521776 0 151.61328125 21.58203125 C166.72586181 36.8924852 172.16350199 55.36406201 172.08056641 76.57592773 C171.41704869 96.53976835 164.44393336 114.01622735 150 128 C136.17948718 139 136.17948718 139 131 139 C141.43323284 158.53603107 141.43323284 158.53603107 152 178 C156.32792141 185.91154116 160.62268264 193.84052612 164.88769531 201.78613281 C165.8407085 203.56113166 166.79532449 205.33526967 167.75 207.109375 C168.64332031 208.77613281 168.64332031 208.77613281 169.5546875 210.4765625 C170.07530762 211.44674316 170.59592773 212.41692383 171.13232422 213.41650391 C173.82175564 218.57669663 176.39766911 223.79533822 179 229 C162.17 229 145.34 229 128 229 C125.9375 224.99875 123.875 220.9975 121.75 216.875 C116.8300693 207.35935337 111.80781206 197.91585898 106.63427734 188.53540039 C101.54776502 179.26602353 96.71878193 169.86538402 91.89868164 160.45556641 C91.587509 159.84949051 91.27633636 159.24341461 90.95573425 158.61897278 C90.10672173 156.96467007 89.26007053 155.3091561 88.41357422 153.65356445 C86.99542957 150.88657347 86.99542957 150.88657347 85 148 C72.13 147.67 59.26 147.34 46 147 C46 174.06 46 201.12 46 229 C30.82 229 15.64 229 0 229 C0 153.43 0 77.86 0 0 Z M46 38 C46 61.76 46 85.52 46 110 C56.6425 110.12375 56.6425 110.12375 67.5 110.25 C69.70365234 110.28641602 71.90730469 110.32283203 74.17773438 110.36035156 C95.10999167 110.66651646 95.10999167 110.66651646 113.39453125 101.62890625 C113.92433594 101.09136719 114.45414063 100.55382812 115 100 C115.56074219 99.45214844 116.12148437 98.90429688 116.69921875 98.33984375 C124.10516548 90.46766308 124.97682979 81.46135134 125 71 C124.42388329 61.39388007 120.79634482 53.2213467 113.6875 46.625 C103.89085955 39.01971334 92.21132969 37.67094408 80.1796875 37.8046875 C79.30513916 37.80670166 78.43059082 37.80871582 77.52954102 37.81079102 C74.31130612 37.82113185 71.09314691 37.84905276 67.875 37.875 C57.046875 37.936875 57.046875 37.936875 46 38 Z " fill="#FFFFFF" transform="translate(1640,688)"/>
<path d="M0 0 C17.73382259 15.48287427 26.31209978 31.81714272 31.27734375 54.98828125 C15.76734375 54.98828125 0.25734375 54.98828125 -15.72265625 54.98828125 C-18.36265625 49.70828125 -21.00265625 44.42828125 -23.72265625 38.98828125 C-32.16794966 28.2042912 -41.07992957 22.38185229 -54.72265625 19.98828125 C-67.02931032 19.10732507 -79.30478383 18.86120117 -90.72265625 23.98828125 C-91.52316406 24.33890625 -92.32367187 24.68953125 -93.1484375 25.05078125 C-108.33683352 32.60563108 -116.81970614 46.48995668 -122.10449219 62.06738281 C-129.92337671 86.36397975 -128.0699939 116.72768933 -117.72265625 139.98828125 C-115.62542978 143.84874964 -113.30232308 147.43471772 -110.72265625 150.98828125 C-110.26246094 151.64441406 -109.80226563 152.30054688 -109.328125 152.9765625 C-101.78073217 162.78599814 -88.64816394 168.58495495 -76.671875 170.671875 C-61.41069741 172.3091669 -46.07834782 171.14620804 -32.72265625 162.98828125 C-32.01496094 162.55773437 -31.30726563 162.1271875 -30.578125 161.68359375 C-21.17723778 155.32046932 -16.31408534 145.82070049 -13.72265625 134.98828125 C-13.06265625 131.02828125 -12.40265625 127.06828125 -11.72265625 122.98828125 C-28.22265625 122.98828125 -44.72265625 122.98828125 -61.72265625 122.98828125 C-61.72265625 111.43828125 -61.72265625 99.88828125 -61.72265625 87.98828125 C-30.37265625 87.98828125 0.97734375 87.98828125 33.27734375 87.98828125 C33.27734375 158.28985296 33.27734375 158.28985296 6.27734375 185.98828125 C-9.43585766 201.08537853 -27.70167659 208.01789119 -48.72265625 211.98828125 C-50.18638672 212.28025391 -50.18638672 212.28025391 -51.6796875 212.578125 C-78.4324919 216.18408708 -107.43977207 209.67864746 -129.47265625 194.11328125 C-131.23966706 192.76021148 -132.99016736 191.38528062 -134.72265625 189.98828125 C-135.56441406 189.31152344 -136.40617187 188.63476562 -137.2734375 187.9375 C-159.39916247 169.11514921 -170.63422601 140.9288353 -173.53955078 112.53588867 C-175.20683573 89.3383974 -173.65613875 66.88849343 -165.72265625 44.98828125 C-165.16964844 43.42207031 -165.16964844 43.42207031 -164.60546875 41.82421875 C-154.97260513 16.64590626 -134.90853149 -2.78207635 -110.72119141 -13.93457031 C-75.17979454 -29.49105638 -30.26683159 -24.68416102 0 0 Z " fill="#FFFFFF" transform="translate(1571.72265625,707.01171875)"/>
<path d="M0 0 C51.15 0 102.3 0 155 0 C155 12.87 155 25.74 155 39 C119.03 39 83.06 39 46 39 C46 57.15 46 75.3 46 94 C79.33 94 112.66 94 147 94 C147 106.54 147 119.08 147 132 C113.67 132 80.34 132 46 132 C46 151.14 46 170.28 46 190 C81.97 190 117.94 190 155 190 C155 202.87 155 215.74 155 229 C103.85 229 52.7 229 0 229 C0 153.43 0 77.86 0 0 Z " fill="#FFFFFF" transform="translate(1213,688)"/>
<path d="M0 0 C7.2879217 -0.56255403 14.57021382 -0.94473346 21.875 -1.20849609 C24.35205947 -1.31848011 26.82771089 -1.46816775 29.29980469 -1.65966797 C49.27961168 -3.1674258 49.27961168 -3.1674258 55.47540283 2.10748291 C59.84132557 7.35522251 62.86817137 13.17038672 65.71499634 19.34432983 C67.50181322 23.03707906 69.74257972 26.29901582 72.125 29.625 C80.3842294 41.85212339 87.84959814 54.58702972 94.75 67.625 C95.18054687 68.43678711 95.61109375 69.24857422 96.0546875 70.08496094 C99 75.74395954 99 75.74395954 99 78 C99.66 78 100.32 78 101 78 C101.23203125 77.36964844 101.4640625 76.73929688 101.703125 76.08984375 C107.14600393 63.12202077 114.29818333 50.49623585 122.25634766 38.91577148 C125.54919866 34.09656014 128.34490585 29.40880652 130.61158752 24.04151917 C138.91048384 4.67920971 138.91048384 4.67920971 148 0 C164.35683186 -4.55497774 183.36127605 -1.82595904 200 0 C196.85421793 5.6998165 193.34455112 11.07365381 189.6875 16.45703125 C189.07793457 17.35886642 188.46836914 18.2607016 187.84033203 19.18986511 C185.89590319 22.065674 183.94810391 24.93917969 182 27.8125 C179.45737947 31.56836537 176.91607641 35.32512106 174.375 39.08203125 C173.75056503 40.00485901 173.12613007 40.92768677 172.48277283 41.878479 C166.61364058 50.55809864 160.79808226 59.27281187 155 68 C154.2485786 69.13031859 153.49711684 70.26061036 152.74560547 71.39086914 C152.0754541 72.39883545 151.40530273 73.40680176 150.71484375 74.4453125 C150.08698975 75.38906738 149.45913574 76.33282227 148.81225586 77.30517578 C147.51043157 79.26325243 146.21060569 81.2226586 144.91235352 83.18310547 C141.84467923 87.80097537 138.75435895 92.38622904 135.5 96.875 C134.97801025 97.60187012 134.45602051 98.32874023 133.91821289 99.07763672 C132.96363255 100.39752308 131.99498511 101.70740376 131.00952148 103.00439453 C129.03737768 105.74138715 128.01378557 107.56345706 127.90625 110.96875 C129.35406501 114.98126589 131.51200279 117.98306789 134.0625 121.375 C135.16071567 122.88050986 136.2555799 124.38846835 137.34765625 125.8984375 C138.23155029 127.11998535 138.23155029 127.11998535 139.13330078 128.36621094 C142.53619651 133.16747161 145.75752372 138.08964378 149 143 C154.02218626 150.58322345 159.12618891 158.08427064 164.41748047 165.48168945 C169.51549773 172.64793231 174.34439947 179.99044116 179.20117188 187.32128906 C183.6139603 193.96600375 188.14526996 200.49539838 192.8203125 206.95703125 C197.93296779 214.09459124 202.66622203 221.37078005 207 229 C163.5871002 235.77211667 163.5871002 235.77211667 150.27093506 227.2543335 C139.38057345 217.82734642 132.82988338 203.91851227 126.59521484 191.18310547 C123.5073913 184.89019568 119.76829475 179.22064638 115.8125 173.4375 C110.12507997 164.53042186 104.98938373 155.31198345 100 146 C96.42245165 150.13170163 93.98397974 154.52078105 91.4375 159.3125 C86.94334673 167.57367581 81.90380809 175.25269814 76.46826172 182.91650391 C73.85497714 186.62481295 71.30639341 190.37735676 68.75 194.125 C67.66544519 195.71099262 66.58080791 197.29692886 65.49609375 198.8828125 C61.5983429 204.58634542 57.70473376 210.292701 53.8125 216 C53.16442383 216.9502002 52.51634766 217.90040039 51.84863281 218.87939453 C51.2450293 219.76481934 50.64142578 220.65024414 50.01953125 221.5625 C49.48432861 222.34753906 48.94912598 223.13257813 48.39770508 223.94140625 C47.25670726 225.62191168 46.12673449 227.30989826 45 229 C42.74740601 229.36076355 42.74740601 229.36076355 39.90771484 229.34057617 C38.84676605 229.34034958 37.78581726 229.34012299 36.69271851 229.33988953 C34.96923691 229.31666374 34.96923691 229.31666374 33.2109375 229.29296875 C32.03737701 229.28872391 30.86381653 229.28447906 29.6546936 229.28010559 C25.89456546 229.26326976 22.13496703 229.22560777 18.375 229.1875 C15.83073689 229.17245954 13.2864654 229.15877003 10.7421875 229.14648438 C4.49460995 229.11335017 -1.75265719 229.06310206 -8 229 C-5.85847298 225.1843917 -3.75089433 221.46751617 -1.15234375 217.94140625 C-0.63534912 217.2342749 -0.11835449 216.52714355 0.41430664 215.79858398 C1.23016235 214.69172241 1.23016235 214.69172241 2.0625 213.5625 C6.31128408 207.74111015 10.50074091 201.89102711 14.5625 195.9375 C18.75520087 189.79645316 23.01225657 183.70524675 27.30883789 177.63647461 C31.22458434 172.10396861 35.11652247 166.55519782 39 161 C44.80780651 152.69484464 50.64210989 144.40886082 56.49267578 136.13378906 C58.09981058 133.85870676 59.70444502 131.58187615 61.30859375 129.3046875 C62.12529541 128.1458606 62.12529541 128.1458606 62.95849609 126.96362305 C63.99962681 125.48623163 65.04034155 124.00854695 66.08056641 122.53051758 C66.55026855 121.86431396 67.0199707 121.19811035 67.50390625 120.51171875 C67.93590332 119.88958496 68.36790039 119.26745117 68.81298828 118.62646484 C70 117 70 117 71.96484375 114.89453125 C73.31069953 112.9371302 73.31069953 112.9371302 72.33105469 110.26074219 C70.8661706 106.67215234 69.06283583 104.03435995 66.73828125 100.93359375 C62.45109022 95.10118626 58.38793311 89.15023297 54.41796875 83.09765625 C53.83954224 82.21651154 53.26111572 81.33536682 52.66516113 80.42752075 C51.45935366 78.5883335 50.25439346 76.74859051 49.05023193 74.9083252 C39.59027488 60.45569053 30.07916118 46.03999662 20.375 31.75 C19.94791748 31.12067566 19.52083496 30.49135132 19.08081055 29.84295654 C15.17020452 24.0839163 11.24296774 18.33705564 7.26953125 12.62109375 C6.73602051 11.85249023 6.20250977 11.08388672 5.65283203 10.29199219 C4.71983293 8.95203013 3.78246976 7.61508855 2.83935547 6.28222656 C0 2.21788864 0 2.21788864 0 0 Z " fill="#FFFFFF" transform="translate(1929,688)"/>
<path d="M0 0 C61.38 0 122.76 0 186 0 C186 12.87 186 25.74 186 39 C162.9 39 139.8 39 116 39 C116 101.7 116 164.4 116 229 C100.82 229 85.64 229 70 229 C70 166.3 70 103.6 70 39 C46.9 39 23.8 39 0 39 C0 26.13 0 13.26 0 0 Z " fill="#FFFFFF" transform="translate(995,688)"/>
<path d="M0 0 C15.18 0 30.36 0 46 0 C46 75.57 46 151.14 46 229 C30.82 229 15.64 229 0 229 C0 153.43 0 77.86 0 0 Z " fill="#FFFFFF" transform="translate(1847,688)"/>
<path d="M0 0 C15.18 0 30.36 0 46 0 C46 75.57 46 151.14 46 229 C30.82 229 15.64 229 0 229 C0 153.43 0 77.86 0 0 Z " fill="#FFFFFF" transform="translate(679,688)"/>
</svg>
