<?xml version="1.0" encoding="UTF-8"?>
<svg version="1.1" xmlns="http://www.w3.org/2000/svg" width="2000" height="2000">
<path d="M0 0 C200.64 0 401.28 0 608 0 C608 53.13 608 106.26 608 161 C583.66018678 177.41522287 559.34314792 193.79688503 534.78222656 209.8671875 C526.30877396 215.41510581 517.84959746 220.9847642 509.39108276 226.55541992 C506.50902062 228.45291225 503.62575654 230.34856787 500.74243164 232.24414062 C498.95191624 233.42307163 497.16146716 234.60210337 495.37109375 235.78125 C494.5714621 236.30638184 493.77183044 236.83151367 492.94796753 237.37255859 C487.89977711 240.70102125 482.95254221 244.14257591 478.05335999 247.68737793 C476 249 476 249 474 249 C474 211.38 474 173.76 474 135 C362.13 135 250.26 135 135 135 C136.02915921 246.13042205 136.02915921 246.13042205 137.34228516 357.25756836 C137.4597168 378.76281738 137.4597168 378.76281738 137.48153687 388.83399963 C137.50574332 395.86222965 137.60089161 402.88505892 137.7449646 409.91175842 C137.91108022 418.02558475 137.98560882 426.13425306 137.94956871 434.24979046 C137.93396222 438.39978446 137.95773601 442.53827795 138.0995934 446.6861304 C138.87451844 470.48587205 138.87451844 470.48587205 132.48053885 477.93537641 C126.52924753 483.32669143 119.46342215 486.92516573 112.26042438 490.36847222 C107.28918346 492.85609859 102.78205512 495.94915394 98.20703125 499.08984375 C96.49005605 500.22494446 94.77122624 501.35724943 93.04980469 502.4855957 C91.30397289 503.63613402 89.55820616 504.78677106 87.8125 505.9375 C86.89053833 506.54508148 85.96857666 507.15266296 85.01867676 507.77865601 C71.40422011 516.75269181 57.81508807 525.76402489 44.25 534.8125 C43.04068817 535.61888412 43.04068817 535.61888412 41.8069458 536.44155884 C34.57406451 541.26510042 27.34300609 546.09118876 20.13223267 550.94773865 C18.37839102 552.12877961 16.62345799 553.30817942 14.86816406 554.48706055 C12.81663777 555.86603013 10.76761342 557.24873278 8.72167969 558.63598633 C7.84801758 559.22275146 6.97435547 559.8095166 6.07421875 560.4140625 C5.32744873 560.9188916 4.58067871 561.4237207 3.8112793 561.94384766 C2 563 2 563 0 563 C0 377.21 0 191.42 0 0 Z " fill="#FFFFFF" transform="translate(693,560)"/>
<path d="M0 0 C0 176.88 0 353.76 0 536 C-200.64 536 -401.28 536 -608 536 C-608 490.79 -608 445.58 -608 399 C-606.68 399.33 -605.36 399.66 -604 400 C-601.90941407 399.12250053 -601.90941407 399.12250053 -599.8684082 397.62597656 C-599.06268875 397.08080383 -598.2569693 396.5356311 -597.42683411 395.97393799 C-596.12693794 395.06644806 -596.12693794 395.06644806 -594.80078125 394.140625 C-593.89232956 393.52161316 -592.98387787 392.90260132 -592.04789734 392.26483154 C-589.12782321 390.27167315 -586.21995918 388.26150426 -583.3125 386.25 C-580.45985758 384.29242284 -577.60477704 382.33844399 -574.74935913 380.38491821 C-572.85956317 379.09198593 -570.97059177 377.79784765 -569.08242798 376.50253296 C-562.23981371 371.81697173 -555.32027011 367.27072979 -548.34057617 362.79296875 C-539.67591385 357.23260232 -531.09677163 351.53946844 -522.5 345.875 C-521.54031311 345.2432486 -520.58062622 344.61149719 -519.59185791 343.96060181 C-506.92146715 335.61766726 -494.28885657 327.22859053 -481.83007812 318.57177734 C-480.93482422 317.95383301 -480.03957031 317.33588867 -479.1171875 316.69921875 C-478.36034668 316.17158936 -477.60350586 315.64395996 -476.82373047 315.1003418 C-475 314 -475 314 -473 314 C-473 342.71 -473 371.42 -473 401 C-361.13 401 -249.26 401 -134 401 C-134.87092798 298.62055445 -134.87092798 298.62055445 -135.98193359 196.24365234 C-136.08129883 176.4387207 -136.08129883 176.4387207 -136.09976196 167.16592407 C-136.12025607 160.69058009 -136.20082377 154.219426 -136.32266235 147.74526978 C-136.46310186 140.27161345 -136.52630972 132.80196381 -136.49578891 125.32697932 C-136.48257128 121.50402404 -136.50289321 117.69000674 -136.62273288 113.86871028 C-137.27793932 91.9195886 -137.27793932 91.9195886 -131.88905001 85.47583628 C-126.72447475 81.07145154 -121.02396746 78.14872937 -114.86273026 75.38562036 C-110.10987328 73.08513977 -105.88186509 70.0547055 -101.5703125 67.02734375 C-99.84998975 65.8579114 -98.1282465 64.6905636 -96.40454102 63.52612305 C-95.54337677 62.94067719 -94.68221252 62.35523132 -93.79495239 61.75204468 C-89.13040735 58.5819412 -84.45815745 55.42324552 -79.78515625 52.265625 C-78.85777145 51.63895432 -77.93038666 51.01228363 -76.97489929 50.36662292 C-67.63782548 44.0660565 -58.2259332 37.8835497 -48.79321289 31.72753906 C-41.52408049 26.98110213 -34.28055832 22.19884399 -27.0625 17.375 C-26.22718246 16.81686111 -25.39186493 16.25872223 -24.53123474 15.68367004 C-20.4377523 12.94725265 -16.34665975 10.20732489 -12.25805664 7.46362305 C-10.78795359 6.4796095 -9.31782166 5.49563911 -7.84765625 4.51171875 C-7.16707153 4.05349731 -6.48648682 3.59527588 -5.78527832 3.12316895 C-1.11314899 0 -1.11314899 0 0 0 Z " fill="#FFFFFF" transform="translate(1301,904)"/>
</svg>
